<?xml version="1.0" standalone="no"?>
<!DOCTYPE svg PUBLIC "-//W3C//DTD SVG 20010904//EN"
 "http://www.w3.org/TR/2001/REC-SVG-20010904/DTD/svg10.dtd">
<svg version="1.0" xmlns="http://www.w3.org/2000/svg"
 width="512.000000pt" height="512.000000pt" viewBox="0 0 512.000000 512.000000"
 preserveAspectRatio="xMidYMid meet">

<g transform="translate(0.000000,512.000000) scale(0.100000,-0.100000)"
fill="#000000" stroke="none">
<path d="M2325 5110 c-610 -62 -1149 -315 -1574 -741 -660 -660 -908 -1620
-650 -2518 93 -324 259 -642 474 -909 238 -295 588 -564 934 -717 1147 -509
2485 -125 3178 910 576 860 576 1991 0 2850 -412 614 -1067 1018 -1807 1115
-115 15 -444 21 -555 10z m547 -410 c240 -35 423 -92 643 -200 746 -365 1205
-1104 1205 -1940 0 -355 -66 -641 -220 -955 -211 -433 -552 -774 -985 -985
-314 -154 -600 -220 -955 -220 -345 0 -634 65 -935 209 -446 214 -788 553
-1005 996 -154 314 -220 600 -220 955 0 355 66 641 220 955 313 641 910 1077
1620 1185 168 26 459 26 632 0z"/>
<path d="M1787 3536 c-86 -32 -149 -91 -183 -172 -26 -60 -23 -167 5 -231 13
-29 24 -53 26 -53 1 0 20 17 42 38 117 111 285 114 411 7 46 -40 55 -36 78 41
41 137 -24 289 -153 354 -59 30 -168 38 -226 16z"/>
<path d="M3145 3537 c-95 -39 -151 -95 -185 -183 -27 -73 -23 -160 10 -229
l22 -46 44 41 c62 57 124 82 206 82 80 0 161 -33 209 -84 29 -32 30 -33 45
-13 27 37 46 122 39 178 -13 106 -72 189 -168 239 -50 26 -175 35 -222 15z"/>
<path d="M1370 2203 c-58 -23 -63 -67 -19 -156 64 -127 141 -232 248 -337 195
-193 392 -297 683 -362 134 -30 404 -32 541 -5 406 81 748 329 930 676 51 96
57 128 30 159 -18 20 -30 20 -1208 26 -655 3 -1197 3 -1205 -1z"/>
</g>
</svg>
